Coordinates
version=1
nRows=14
nColumns=24
inDegrees=yes

Units are S.I. units (second, meters, Newtons, ...)
Angles are in degrees.

endheader
time	pelvis_tilt	pelvis_list	pelvis_rotation	pelvis_tx	pelvis_ty	pelvis_tz	hip_flexion_r	hip_adduction_r	hip_rotation_r	knee_angle_r	ankle_angle_r	subtalar_angle_r	mtp_angle_r	hip_flexion_l	hip_adduction_l	hip_rotation_l	knee_angle_l	ankle_angle_l	subtalar_angle_l	mtp_angle_l	lumbar_extension	lumbar_bending	lumbar_rotation
      2.94500000	     22.95874749	     -2.98662222	     -1.40879622	     -0.22613871	      1.03682149	      0.00226334	     -1.21466769	     -3.32420990	    -13.43087394	    -34.53426775	      7.98759184	     -7.93318606	     26.89121293	    -27.62271672	     -0.85616589	     -4.68685813	     -9.60002320	     15.25987120	     -0.93846389	      2.22617267	    -38.91604424	      1.24696095	      1.29595824
      2.95000000	     22.92070935	     -3.02138239	     -1.38739270	     -0.22129187	      1.03647235	      0.00282089	     -1.17101244	     -3.08765911	    -13.31936868	    -32.89162615	      7.98561107	     -7.72611810	     26.71100684	    -28.06617147	     -0.93256907	     -4.80207616	     -9.27800779	     15.32829010	     -0.69541878	      2.33058916	    -38.90560133	      1.27301882	      1.31140453
      2.95500000	     22.85274874	     -3.04012915	     -1.36347463	     -0.21645060	      1.03606069	      0.00340334	     -1.11978037	     -2.86101687	    -13.18535876	    -31.21681380	      7.94732881	     -7.49648342	     26.55575619	    -28.46862606	     -0.99661801	     -4.89459340	     -8.96851506	     15.40128815	     -0.48260608	      2.42654221	    -38.86452171	      1.28449449	      1.32325336
      2.96000000	     22.80473136	     -3.04608634	     -1.34725649	     -0.21158207	      1.03562035	      0.00401069	     -1.11598354	     -2.64690544	    -13.02642091	    -29.51507583	      7.89089646	     -7.24446345	     26.40931928	    -28.89951775	     -1.04436187	     -5.00623440	     -8.64919827	     15.45975449	     -0.25320994	      2.52540542	    -38.84239908	      1.28008089	      1.33584502
      2.96500000	     22.75468819	     -3.03512515	     -1.32250785	     -0.20669767	      1.03514616	      0.00463236	     -1.13786853	     -2.44609200	    -12.85475297	    -27.78666154	      7.80000275	     -6.99687034	     26.25882710	    -29.32378474	     -1.08134581	     -5.11430354	     -8.33602494	     15.50881888	     -0.01274298	      2.63585543	    -38.81663940	      1.26366345	      1.32697637
      2.97000000	     22.68753486	     -3.02136116	     -1.29553428	     -0.20178566	      1.03461813	      0.00526550	     -1.16582487	     -2.24681139	    -12.66498866	    -26.04152963	      7.66484672	     -6.72595591	     26.13457724	    -29.72929856	     -1.11616919	     -5.20181093	     -8.02578667	     15.57474299	      0.19719226	      2.74128847	    -38.76963938	      1.24653802	      1.32699455
      2.97500000	     22.64058736	     -2.97901495	     -1.26522195	     -0.19687801	      1.03407217	      0.00589295	     -1.23798869	     -2.08074206	    -12.46518500	    -24.28635319	      7.50764508	     -6.46814086	     26.02100504	    -30.14607357	     -1.12453894	     -5.28733911	     -7.73116364	     15.61361338	      0.41723260	      2.85354827	    -38.74705477	      1.20738101	      1.30416143
      2.98000000	     22.57704442	     -2.93036721	     -1.23333272	     -0.19193076	      1.03346636	      0.00653483	     -1.31061823	     -1.92300024	    -12.25625844	    -22.53659862	      7.31257729	     -6.20999273	     25.91914598	    -30.54237685	     -1.12868821	     -5.37219117	     -7.44413184	     15.66073860	      0.62826685	      2.97694929	    -38.70262194	      1.16470387	      1.28112325
      2.98500000	     22.51252819	     -2.86576900	     -1.19371791	     -0.18694833	      1.03282627	      0.00718105	     -1.39850682	     -1.78666907	    -12.05435591	    -20.80257724	      7.08779227	     -5.94953946	     25.83531706	    -30.93184007	     -1.12143020	     -5.44058358	     -7.16824047	     15.70371049	      0.82312150	      3.10603553	    -38.65280794	      1.11177613	      1.24594472
      2.99000000	     22.44983735	     -2.78951177	     -1.15590547	     -0.18191531	      1.03214702	      0.00781623	     -1.49939285	     -1.67239437	    -11.85918997	    -19.10017490	      6.82489240	     -5.67172435	     25.77218266	    -31.32857345	     -1.09857953	     -5.49799597	     -6.88487255	     15.74718184	      0.98677132	      3.22602326	    -38.60076077	      1.05221486	      1.19735887
      2.99500000	     22.40598285	     -2.69824587	     -1.09210674	     -0.17686244	      1.03147075	      0.00845459	     -1.64492940	     -1.57276508	    -11.68085298	    -17.40829918	      6.55101400	     -5.43950049	     25.71555546	    -31.72164546	     -1.08016164	     -5.55345518	     -6.64529658	     15.78281735	      1.19373465	      3.37295411	    -38.56691548	      0.98995350	      1.14229297
      3.00000000	     22.37039999	     -2.59289949	     -1.02660674	     -0.17177134	      1.03077857	      0.00908441	     -1.80650032	     -1.49662675	    -11.51278745	    -15.76590244	      6.25083132	     -5.20254842	     25.67161648	    -32.11558473	     -1.04751331	     -5.60758659	     -6.42313876	     15.81297175	      1.38451648	      3.54666992	    -38.53801672	      0.91902452	      1.06936592
      3.00500000	     22.33003959	     -2.47679372	     -0.95959665	     -0.16662775	      1.03003516	      0.00969960	     -1.95580312	     -1.44439376	    -11.37233356	    -14.20779620	      5.93709124	     -4.94165767	     25.64189046	    -32.50975505	     -1.00316670	     -5.62708622	     -6.19228473	     15.84652264	      1.53787473	      3.70928311	    -38.49945480	      0.84424763	      0.98744212
      3.01000000	     22.31990067	     -2.35374049	     -0.86765683	     -0.16145052	      1.02931341	      0.01030972	     -2.15096207	     -1.40171831	    -11.26756849	    -12.70209667	      5.62243186	     -4.70627723	     25.62065127	    -32.91414503	     -0.96857021	     -5.65183613	     -6.00464942	     15.87432539	      1.70625134	      3.89641620	    -38.49037006	      0.77458722	      0.89428045
